<?xml version="1.0" encoding="UTF-8"?>
<!DOCTYPE svg PUBLIC "-//W3C//DTD SVG 1.1//EN" "http://www.w3.org/Graphics/SVG/1.1/DTD/svg11.dtd">
<!-- Creator: CorelDRAW X6 -->
<svg xmlns="http://www.w3.org/2000/svg" xml:space="preserve" width="276px" height="21px" version="1.1" style="shape-rendering:geometricPrecision; text-rendering:geometricPrecision; image-rendering:optimizeQuality; fill-rule:evenodd; clip-rule:evenodd" viewBox="0 0 13264 1014" xmlns:xlink="http://www.w3.org/1999/xlink">
 <defs>
  <style type="text/css">
   <![CDATA[
    .fil1 {fill:#858788;fill-rule:nonzero}
    .fil0 {fill:#F38F3C;fill-rule:nonzero}
   ]]>
  </style>
 </defs>
 <g id="Layer_x0020_1">
  <metadata id="CorelCorpID_0Corel-Layer"/>
  <path class="fil0" d="M568 985c0,25 -4,29 -29,29l-126 0c-25,0 -29,-4 -29,-29l0 -187 -353 0c-26,0 -30,-4 -30,-29l0 -152 361 -601c6,-10 12,-19 19,-19 7,0 13,3 20,6l87 36c12,4 22,9 22,20 0,7 -4,13 -9,20l-337 573 222 0 23 -233c1,-23 6,-29 30,-29l101 0c25,0 29,4 29,30l0 232 81 0c26,0 30,1 30,35l0 81c0,25 -4,29 -30,29l-81 0 0 187z"/>
  <path class="fil0" d="M1145 959c0,26 -6,30 -30,30l-135 0c-25,0 -30,-4 -30,-30l0 -788 -190 0c-20,0 -25,-4 -25,-25l0 -124c0,-20 4,-25 25,-25l596 0c29,0 36,3 36,16 0,7 -1,10 -4,20l-30 114c-6,23 -22,23 -33,23l-180 0 0 788z"/>
  <path class="fil0" d="M2180 653c0,216 -75,361 -349,361 -274,0 -349,-145 -349,-361l0 -625c0,-26 6,-30 30,-30l135 0c25,0 30,4 30,30l0 625c0,104 7,204 153,204 146,0 153,-100 153,-204l0 -625c0,-26 6,-30 30,-30l135 0c25,0 30,4 30,30l0 625z"/>
  <path class="fil1" d="M2459 1009c-59,0 -110,-49 -110,-110 0,-61 51,-110 110,-110 60,0 110,49 110,110 0,61 -50,110 -110,110z"/>
  <path class="fil1" d="M3128 923c3,6 5,11 5,16 0,18 -72,68 -176,68 -186,0 -275,-121 -275,-376 0,-244 91,-388 275,-388 80,0 174,58 174,79 0,4 0,8 -5,16l-39 59c-4,6 -9,11 -13,11 -18,0 -53,-50 -109,-50 -91,0 -132,63 -132,245 0,181 22,289 132,289 59,0 98,-39 119,-39 4,0 7,3 12,11l33 59z"/>
  <path class="fil1" d="M3484 664c0,-44 -3,-119 -76,-119 -83,0 -87,89 -90,119l167 0zm123 269c2,3 3,7 3,12 0,28 -106,63 -190,63 -140,0 -238,-80 -238,-275 0,-169 90,-286 233,-286 181,0 212,161 212,290 0,20 -4,27 -24,27l-286 0c0,59 17,133 117,133 76,0 120,-35 135,-35 5,0 10,4 12,9l27 64z"/>
  <path class="fil1" d="M4144 974c0,12 -2,15 -15,15l-105 0c-13,0 -15,-3 -15,-15l0 -327c0,-40 -5,-89 -59,-89 -45,0 -80,31 -93,44l0 373c0,12 -2,15 -15,15l-105 0c-13,0 -15,-3 -15,-15l0 -321c0,-150 -20,-141 -20,-166 0,-5 4,-10 12,-12l81 -27c6,-2 12,-3 16,-3 14,0 22,23 34,73 31,-28 79,-73 162,-73 58,0 138,27 138,155l0 373z"/>
  <path class="fil1" d="M4584 958c1,5 2,5 2,9 0,20 -78,40 -150,40 -137,0 -137,-107 -137,-205l0 -239 -75 0c-13,0 -15,-3 -15,-15l0 -69c0,-12 2,-15 15,-15l75 0 0 -134c0,-14 2,-17 17,-19l93 -13c3,0 7,-1 14,-1 10,0 11,5 11,18l0 149 121 0c10,0 18,0 18,12 0,2 0,4 -1,8l-14 63c-3,15 -6,16 -19,16l-105 0 0 257c0,34 0,65 36,65 42,0 69,-20 84,-20 4,0 7,2 9,6l21 87z"/>
  <path class="fil1" d="M4775 974c0,12 -2,15 -15,15l-105 0c-13,0 -15,-3 -15,-15l0 -321c0,-117 -28,-136 -28,-160 0,-4 4,-7 10,-10l81 -33c4,-1 10,-4 14,-4 13,0 34,48 39,84 20,-24 59,-84 132,-84 31,0 62,11 62,24 0,4 -1,8 -2,11l-33 89c-1,3 -4,10 -9,10 -6,0 -25,-12 -50,-12 -33,0 -67,36 -81,51l0 355z"/>
  <path class="fil1" d="M5243 664c0,-44 -3,-119 -76,-119 -83,0 -87,89 -90,119l167 0zm123 269c2,3 3,7 3,12 0,28 -106,63 -190,63 -140,0 -238,-80 -238,-275 0,-169 90,-286 233,-286 181,0 212,161 212,290 0,20 -4,27 -24,27l-286 0c0,59 17,133 117,133 76,0 120,-35 135,-35 5,0 10,4 12,9l27 64z"/>
  <path class="fil1" d="M5947 967c0,19 -4,22 -22,22l-90 0c-18,0 -22,-3 -22,-22l0 -404 -75 0c-18,0 -22,-3 -22,-22l0 -54c0,-19 4,-22 22,-22l75 0 0 -44c0,-117 42,-201 170,-201 48,0 130,17 130,38 0,3 -1,6 -2,10l-19 74c-1,4 -5,11 -10,11 -12,0 -34,-18 -74,-18 -57,0 -59,35 -59,86l0 44 121 0c10,0 18,2 18,11 0,4 -1,6 -2,11l-15 63c-3,14 -10,15 -20,15l-102 0 0 404z"/>
  <path class="fil1" d="M6412 727c0,-99 -14,-174 -87,-174 -73,0 -87,75 -87,174 0,99 13,174 87,174 74,0 87,-74 87,-174zm-87 280c-143,0 -230,-109 -230,-280 0,-171 87,-280 230,-280 142,0 230,109 230,280 0,171 -87,280 -230,280z"/>
  <path class="fil1" d="M6788 974c0,12 -2,15 -15,15l-105 0c-13,0 -15,-3 -15,-15l0 -321c0,-117 -28,-136 -28,-160 0,-4 4,-7 10,-10l81 -33c4,-1 10,-4 14,-4 13,0 34,48 39,84 20,-24 59,-84 132,-84 31,0 62,11 62,24 0,4 -1,8 -2,11l-33 89c-1,3 -4,10 -9,10 -6,0 -25,-12 -50,-12 -33,0 -67,36 -81,51l0 355z"/>
  <path class="fil1" d="M7477 577c69,0 127,-11 127,-108 0,-92 -61,-96 -116,-96l-39 0 0 204 28 0zm-28 390c0,19 -4,22 -22,22l-99 0c-18,0 -22,-3 -22,-22l0 -683c0,-19 4,-22 22,-22l172 0c82,0 247,5 247,205 0,137 -82,176 -121,196l158 284c3,5 9,14 9,20 0,6 -11,10 -21,13l-89 26c-4,1 -11,2 -15,2 -5,0 -14,-13 -24,-33l-143 -286 -51 0 0 278z"/>
  <path class="fil1" d="M8136 664c0,-44 -3,-119 -76,-119 -83,0 -87,89 -90,119l167 0zm123 269c2,3 3,7 3,12 0,28 -106,63 -190,63 -140,0 -238,-80 -238,-275 0,-169 90,-286 233,-286 181,0 212,161 212,290 0,20 -4,27 -24,27l-286 0c0,59 17,133 117,133 76,0 120,-35 135,-35 5,0 10,4 12,9l27 64z"/>
  <path class="fil1" d="M8675 571c-2,5 -7,10 -8,10 -3,0 -55,-28 -123,-28 -40,0 -70,15 -70,51 0,57 96,53 171,103 41,28 71,68 71,130 0,98 -69,171 -182,171 -79,0 -200,-40 -200,-69 0,-3 4,-10 5,-14l23 -61c2,-5 4,-10 8,-10 4,0 86,47 152,47 35,0 65,-15 65,-53 0,-62 -104,-62 -174,-108 -32,-21 -63,-58 -63,-120 0,-97 73,-173 188,-173 65,0 166,28 166,52 0,3 -3,10 -5,14l-24 58z"/>
  <path class="fil1" d="M9074 664c0,-44 -3,-119 -76,-119 -83,0 -87,89 -90,119l167 0zm123 269c2,3 3,7 3,12 0,28 -106,63 -190,63 -140,0 -238,-80 -238,-275 0,-169 90,-286 233,-286 181,0 212,161 212,290 0,20 -4,27 -24,27l-286 0c0,59 17,133 117,133 76,0 120,-35 135,-35 5,0 10,4 12,9l27 64z"/>
  <path class="fil1" d="M9552 751c-27,0 -150,-8 -150,85 0,41 30,72 70,72 39,0 67,-28 80,-40l0 -117zm65 252c-4,1 -10,4 -14,4 -10,0 -26,-37 -31,-64 -21,21 -58,64 -138,64 -98,0 -159,-64 -159,-164 0,-179 193,-179 277,-179l0 -33c0,-48 -8,-79 -75,-79 -59,0 -118,32 -132,32 -5,0 -10,-6 -11,-11l-21 -65c-2,-4 -3,-9 -3,-13 0,-24 105,-50 187,-50 133,0 183,61 183,171l0 205c0,103 28,117 28,138 0,4 -4,7 -10,10l-81 33z"/>
  <path class="fil1" d="M9935 974c0,12 -2,15 -15,15l-105 0c-13,0 -15,-3 -15,-15l0 -321c0,-117 -28,-136 -28,-160 0,-4 4,-7 10,-10l81 -33c4,-1 10,-4 14,-4 13,0 34,48 39,84 20,-24 59,-84 132,-84 31,0 62,11 62,24 0,4 -1,8 -2,11l-33 89c-1,3 -4,10 -9,10 -6,0 -25,-12 -50,-12 -33,0 -67,36 -81,51l0 355z"/>
  <path class="fil1" d="M10484 940c1,3 3,7 3,11 0,25 -86,56 -150,56 -148,0 -236,-90 -236,-270 0,-179 90,-291 247,-291 57,0 151,32 151,65 0,3 -2,6 -3,10l-39 69c-2,2 -4,5 -7,5 -11,0 -46,-42 -101,-42 -72,0 -104,55 -104,177 0,117 28,171 109,171 54,0 75,-36 95,-36 3,0 5,2 7,5l28 70z"/>
  <path class="fil1" d="M10984 974c0,12 -2,15 -15,15l-105 0c-13,0 -15,-3 -15,-15l0 -327c0,-40 -5,-89 -59,-89 -45,0 -76,32 -90,45l0 372c0,12 -2,15 -15,15l-105 0c-13,0 -15,-3 -15,-15l0 -714c0,-16 7,-16 20,-19l89 -18c3,0 13,-3 15,-3 8,0 11,4 11,22l0 264c29,-23 71,-61 147,-61 113,0 138,75 138,168l0 360z"/>
  <path class="fil1" d="M11600 875c120,0 165,-52 165,-255 0,-190 -46,-243 -165,-243l-38 0 0 498 38 0zm6 -613c203,0 309,66 309,360 0,305 -123,367 -312,367l-162 0c-18,0 -22,-4 -22,-22l0 -683c0,-19 4,-22 23,-22l165 0z"/>
  <path class="fil1" d="M12250 751c-27,0 -150,-8 -150,85 0,41 30,72 70,72 39,0 67,-28 80,-40l0 -117zm65 252c-4,1 -10,4 -14,4 -10,0 -26,-37 -31,-64 -21,21 -58,64 -138,64 -98,0 -159,-64 -159,-164 0,-179 193,-179 277,-179l0 -33c0,-48 -8,-79 -75,-79 -59,0 -118,32 -132,32 -5,0 -10,-6 -11,-11l-21 -65c-2,-4 -3,-9 -3,-13 0,-24 105,-50 187,-50 133,0 183,61 183,171l0 205c0,103 28,117 28,138 0,4 -4,7 -10,10l-81 33z"/>
  <path class="fil1" d="M12813 958c1,5 2,5 2,9 0,20 -78,40 -150,40 -137,0 -137,-107 -137,-205l0 -239 -75 0c-13,0 -15,-3 -15,-15l0 -69c0,-12 2,-15 15,-15l75 0 0 -134c0,-14 2,-17 17,-19l93 -13c3,0 7,-1 14,-1 10,0 11,5 11,18l0 149 121 0c10,0 18,0 18,12 0,2 0,4 -1,8l-14 63c-3,15 -6,16 -19,16l-105 0 0 257c0,34 0,65 36,65 42,0 69,-20 84,-20 4,0 7,2 9,6l21 87z"/>
  <path class="fil1" d="M13109 751c-27,0 -150,-8 -150,85 0,41 30,72 70,72 39,0 67,-28 80,-40l0 -117zm65 252c-4,1 -10,4 -14,4 -10,0 -25,-37 -31,-64 -21,21 -58,64 -138,64 -98,0 -159,-64 -159,-164 0,-179 193,-179 277,-179l0 -33c0,-48 -8,-79 -75,-79 -59,0 -118,32 -132,32 -5,0 -10,-6 -11,-11l-21 -65c-2,-4 -3,-9 -3,-13 0,-24 105,-50 187,-50 133,0 183,61 183,171l0 205c0,103 28,117 28,138 0,4 -4,7 -10,10l-81 33z"/>
 </g>
</svg>