<?xml version="1.0" encoding="utf-8"?>
<!-- Generator: Adobe Illustrator 16.0.0, SVG Export Plug-In . SVG Version: 6.00 Build 0)  -->
<!DOCTYPE svg PUBLIC "-//W3C//DTD SVG 1.1//EN" "http://www.w3.org/Graphics/SVG/1.1/DTD/svg11.dtd">
<svg version="1.1" id="Layer_1" xmlns="http://www.w3.org/2000/svg" xmlns:xlink="http://www.w3.org/1999/xlink" x="0px" y="0px"
	 width="100px" height="100px" viewBox="0 0 100 100" enable-background="new 0 0 100 100" xml:space="preserve">
<path fill-rule="evenodd" clip-rule="evenodd" d="M52.9,16.449c0.582,4.167,0.56,8.188,0.413,12.381
	c-0.193,5.522,1.207,10.736,0.61,16.284c-0.816,7.621-2.943,15.47-2.498,23.232c0.119-0.069,0.236-0.141,0.357-0.205
	c4.056-2.356,7.836-5.773,11.531-8.704c7.312-5.805,13.699-11.61,22.837-14.324c10.156-3.014,13.718,13.369,3.635,16.363
	c-7.534,2.236-13.052,8.73-19.184,13.323c-5.042,3.784-12.312,7.446-16.254,12.261c-3.247,3.963-10.922,2.348-12.845-2.277
	c-0.409-0.979-1.025-1.858-1.772-2.663c-0.778-0.454-1.482-1.057-2.077-1.816c-3.657-2.659-8.771-4.303-12.158-5.86
	c-6.165-2.835-12.312-5.585-18.101-9.198c-9.086-5.657-0.316-19.733,8.756-14.08c5.204,3.239,12.196,5.771,18.955,8.772
	c0.244-3.348,0.702-6.664,1.299-9.817c0.942-4.983,1.629-9.179,0.835-14.244c-0.827-5.285,0.379-10.621-0.352-15.871
	C35.414,9.382,51.413,5.739,52.9,16.449"/>
</svg>
