<?xml version="1.0" encoding="utf-8"?>
<!-- Generator: Adobe Illustrator 16.0.0, SVG Export Plug-In . SVG Version: 6.00 Build 0)  -->
<!DOCTYPE svg PUBLIC "-//W3C//DTD SVG 1.1//EN" "http://www.w3.org/Graphics/SVG/1.1/DTD/svg11.dtd">
<svg version="1.1" id="Layer_1" xmlns="http://www.w3.org/2000/svg" xmlns:xlink="http://www.w3.org/1999/xlink" x="0px" y="0px"
	 width="100px" height="100px" viewBox="0 0 100 100" enable-background="new 0 0 100 100" xml:space="preserve">
<path fill-rule="evenodd" clip-rule="evenodd" d="M82.471,52.516c-4.149,0.695-8.17,0.781-12.365,0.748
	c-5.525-0.044-10.699,1.497-16.262,1.051c-7.641-0.61-15.544-2.523-23.291-1.869c0.072,0.118,0.146,0.232,0.214,0.352
	c2.466,3.991,5.983,7.678,9.014,11.292c6,7.152,11.976,13.38,14.936,22.441c3.288,10.07-12.992,14.074-16.258,4.076
	c-2.439-7.472-9.081-12.812-13.838-18.816c-3.919-4.938-7.776-12.105-12.695-15.917c-4.05-3.138-2.643-10.854,1.929-12.901
	c0.968-0.436,1.83-1.075,2.614-1.843c0.433-0.79,1.016-1.51,1.76-2.125c2.559-3.727,4.063-8.885,5.529-12.312
	c2.667-6.239,5.25-12.459,8.705-18.343c5.409-9.236,19.718-0.85,14.312,8.372c-3.097,5.29-5.439,12.348-8.257,19.185
	c3.354,0.153,6.681,0.521,9.849,1.033c5.007,0.807,9.22,1.38,14.261,0.45c5.261-0.97,10.627,0.092,15.855-0.78
	C89.062,34.845,93.137,50.739,82.471,52.516"/>
</svg>
