<?xml version="1.0" encoding="utf-8"?>
<!-- Generator: Adobe Illustrator 16.0.4, SVG Export Plug-In . SVG Version: 6.00 Build 0)  -->
<!DOCTYPE svg PUBLIC "-//W3C//DTD SVG 1.1//EN" "http://www.w3.org/Graphics/SVG/1.1/DTD/svg11.dtd">
<svg version="1.1" id="Layer_1" xmlns="http://www.w3.org/2000/svg" xmlns:xlink="http://www.w3.org/1999/xlink" x="0px" y="0px"
	 width="800px" height="800px" viewBox="0 0 800 800" enable-background="new 0 0 800 800" xml:space="preserve">
<path fill-rule="evenodd" clip-rule="evenodd" fill="#FFFFFF" d="M450.73,623.11c-10.586,2.061-19.754,3.146-29.08,3.56
	c-11.509,0.513-22.729-1.863-34.149-1.546c-20.63,0.574-41.295,0.378-61.89,1.525c-9.436,0.525-18.426,4.944-28.32,4.16
	c-3.634-0.286-3.182,4.086-3.222,6.746c-0.191,13.111-0.625,26.194,0.045,39.342c0.328,6.454-3.455,12.982-3.026,19.933
	c0.147,2.404-1.864,3.361-4.088,3.239c-2.282-0.124-4.202-0.667-4.548-3.614c-0.844-7.203,1.484-14.143,1.438-21.3
	c-0.088-13.427,0.296-26.856,0.474-40.286c0.015-1.096-0.072-2.195-0.062-3.291c0.118-11.289,0.132-11.534,11.326-10.961
	c5.937,0.306,8.191-0.675,7.237-7.586c-0.803-5.822-2.017-12.123,0.385-18.127c0.355-0.893-0.117-2.17-0.358-3.234
	c-4.282-18.888-6.979-38.006-14.129-56.381c-9.359-24.052-14.753-49.486-21.738-74.359c-1.872-6.665-5.415-12.857-5.506-20.03
	c-0.01-0.791-0.527-1.976-1.157-2.298c-8.499-4.365-9.024-13.345-12.228-20.786c-1.572-3.653-3.523-7.314-6.791-9.577
	c-8.274-5.731-14.225-13.266-19.909-21.513c-7.722-11.201-17.544-20.809-27.288-30.333c-4.854-4.746-7.909-10.484-10.275-16.647
	c-2.512-6.543,0.1-15.54,5.577-19.556c5.921-4.341,11.67-2.408,17.145,1.015c2.406,1.504,4.898,3.145,6.712,5.27
	c9.693,11.356,20.872,21.369,31.708,31.408c10.843,10.046,20.089,22.28,33.584,29.359c4.539,2.381,8.196-1.553,12.297-2.275
	c2.811-0.494,0.902-3.729,0.504-5.638c-4.081-19.517-7.197-39.328-12.823-58.398c-3.436-11.646-4.969-24.106-13.034-34.621
	c-5.598-7.298-6.578-17.577-7.449-26.917c-0.793-8.529,4.924-16.258,11.674-17.871c7.502-1.792,17.154,2.286,20.41,9.966
	c10.25,24.176,22.722,47.613,29.152,73.128c3.123,12.387,8.833,23.145,13.942,34.419c1.003,2.214,2.908,2.584,4.93,2.398
	c2.041-0.187,1.339-1.949,1.233-3.065c-2.212-23.076,1.554-46.049,1.187-69.104c-0.18-11.306-1.206-22.336-4.944-33.021
	c-3.665-10.478-5.149-21.248-5.163-32.332c-0.016-12.08-0.573-24.158-0.654-36.239c-0.084-12.399,7.37-20.902,19.918-23.154
	c10.188-1.828,18.572,3.785,22.799,15.476c2.321,6.416,3.906,13.048,4.087,19.9c0.56,21.147,3.889,41.979,7.853,62.66
	c2.426,12.659,6.79,24.922,8.553,37.791c2.324,16.959,3.979,33.969,4.393,51.077c0.126,5.281-0.388,10.359,4.809,14.006
	c2.994,2.104,5.603,2.329,6.976-0.876c6.017-14.024,15.555-25.902,23.027-39.011c2.02-3.542,1.282-8.567,2.265-12.807
	c5.342-23.079,8.755-46.52,13.254-69.753c1.334-6.895,3.278-13.662,6.583-19.919c5.006-9.479,12.344-13.26,21.432-11.203
	c11.405,2.579,17.618,9.534,17.988,20.378c0.444,13.016-2.7,25.739-3.258,38.689c-0.905,20.823-2.713,41.564-7.483,61.926
	c-0.796,3.4-1.645,6.852-3.03,10.037c-6.386,14.724-9.667,29.937-8.534,46.074c0.38,5.436,0.835,11.181-0.494,16.334
	c-1.301,5.053,1.427,6.448,4.515,7.796c4.799,2.1,9.799,3.765,14.794,5.375c6.131,1.98,11.788,0.646,16.656-3.423
	c6.671-5.58,13.864-9.893,22.599-11.457c4.022-0.719,6.728-3.981,9.773-6.444c7.162-5.798,13.807-12.209,21.499-17.387
	c15.477-10.412,29.074-6.635,45.229,1.577c5.072,2.579,6.773,8.083,5.869,13.694c-1.401,8.705-4.934,16.482-12.344,21.765
	c-14.681,10.458-25.333,24.85-37.294,37.945c-4.021,4.403-7.154,9.285-9.189,15.333c-2.961,8.809-9.83,15.431-16.843,21.559
	c-25.499,22.293-52.908,42.113-80.502,61.65c-6.342,4.488-9.245,9.987-10.593,17.085c-2.58,13.613-2.647,27.278-1.518,41.033
	c0.256,3.151,1.668,2.803,3.824,2.616c8.78-0.763,12.346,1.43,11.821,10.271c-0.895,14.947-0.383,29.507,2.668,44.252
	c1.655,7.997,0.3,16.628,0.196,24.972c-0.038,3.159-0.393,6.531-4.493,6.854c-3.954,0.31-4.246-2.402-5.249-5.745
	c-1.732-5.774,0.284-11.245,0.099-16.804c-0.522-15.79-6.007-31.107-4.055-47.065C448.731,628.548,448.951,626.44,450.73,623.11z
	 M342.131,177.735c-3.777,2.618-3.981,6.476-3.875,10.51c0.3,11.41,0.936,22.822,0.881,34.229
	c-0.054,11.534,1.523,22.635,5.359,33.563c3.434,9.78,4.242,20.021,4.482,30.436c0.607,26.32-3.854,52.607-0.376,78.929
	c0.344,2.602-0.227,4.83-3.077,5.784c-3.817,1.277-17.856-2.936-19.039-6.579c-2.541-7.821-8.247-13.914-10.803-21.681
	c-3.683-11.191-6.544-22.615-10.315-33.8c-6.181-18.334-15.978-35.057-22.502-53.205c-1.615-4.494-5.832-6.99-10.55-6.126
	c-4.601,0.841-6.305,5.247-5.583,9.243c1.426,7.903,1.134,17.135,6.154,23.16c8.698,10.443,10.05,23.274,13.515,35.128
	c5.823,19.915,9.376,40.516,13.439,60.917c2.583,12.968,1.933,12.194-10.058,16.315c-8.31,2.857-14.816,4.165-20.368-4.032
	c-0.774-1.143-2.547-1.648-3.907-2.352c-10.746-5.559-18.318-15.387-26.378-23.482c-10.382-10.426-21.969-19.963-31.223-31.62
	c-1.521-1.915-3.78-3.329-5.898-4.658c-2.152-1.351-4.526-3.374-7.19-1.457c-2.658,1.914-3.604,4.971-3.352,8.127
	c0.133,1.664,1.172,3.256,1.801,4.881c0.044,0.423,0.09,0.703,0.291,0.882c1.887,4.005,4.531,7.397,7.625,10.599
	c11.882,12.29,24.259,24.162,33.08,39.084c1.396,2.363,3.691,4.45,6.026,5.958c9.727,6.29,15.566,15.191,18.637,26.173
	c0.628,2.249,0.79,4.962,3.307,6.106c4.719,2.149,7,6.555,7.691,10.87c1.046,6.511,3.415,12.504,5.192,18.728
	c7.452,26.094,12.945,52.842,23.1,78.03c7.22,17.912,8.919,36.826,13.369,55.22c0.446,1.841-0.062,3.901-0.054,5.861
	c0.023,5.598-1.62,11.188-0.305,16.763c0.304,1.29-0.296,3.961,2.562,3.451c5.183-0.923,10.636,0.146,15.626-1.88
	c4.494-1.822,8.838-1.843,13.479-0.55c4.698,1.308,9.687,1.187,14.39,0.331c9.392-1.712,18.798-1.922,28.208-1.065
	c13.353,1.215,26.697,1.866,40.106,1.463c9.018-0.274,12.095-2.79,9.742-11.64c-3.521-13.226,0.7-25.623,2.27-38.251
	c0.725-5.82,1.862-13.246,7.375-16.305c13.703-7.607,25.385-17.888,38.038-26.852c17.737-12.563,34.779-26.067,50.843-40.743
	c5.376-4.91,10.715-10.371,12.271-17.541c1.259-5.81,3.63-9.535,7.854-13.928c12.69-13.194,24.532-27.219,37.884-39.815l0.191-0.187
	c6.443-2.969,11.909-11.727,11.397-18.105c-0.171-2.142-1.086-3.642-2.839-4.882c-9.582-6.78-24.863-7.286-34.858-1.019
	c-8.041,5.043-14.588,11.949-22.004,17.777c-3.586,2.818-6.831,6.373-11.599,7.188c-7.606,1.298-13.941,4.923-19.732,9.859
	c-7.711,6.575-16.621,7.47-26.001,4.68c-5.023-1.497-10.012-3.258-14.792-5.404c-9.528-4.281-12.186-10.934-9.461-21.051
	c0.951-3.539,1.42-7.47,0.965-11.078c-1.841-14.58,1.029-28.59,6.312-41.801c5.367-13.424,7.728-27.423,9.848-41.373
	c2.397-15.788,2.785-31.889,3.855-47.867c0.61-9.152,3.314-18.142,1.779-27.475c-1.097-6.658-5.748-8.68-11.413-10.018
	c-5.652-1.334-8.62,1.78-11.092,6.032c-2.33,4.014-3.868,8.362-4.998,12.82c-5.448,21.471-6.702,43.76-12.61,65.135
	c-2.337,8.44-0.713,17.922-5.122,25.564c-7.862,13.631-17.3,26.315-24.038,40.67c-2.668,5.685-12.881,6.584-18.025,3.032
	c-7.101-4.905-8.909-11.816-8.87-19.736c0.106-21.972-1.412-43.911-6.654-65.196c-7.207-29.265-12.815-58.637-13.829-88.826
	c-0.197-5.882-1.665-11.736-3.812-17.286c-4.185-10.809-12.458-12.602-21.661-5.159
	C342.642,177.344,342.307,177.612,342.131,177.735z"/>
<path fill-rule="evenodd" clip-rule="evenodd" fill="#3ACC8A" d="M462.07,149.68c-4.008,7.808-0.088,16.329,0.285,24.921
	c0.103,2.401,0.397,5.325-2.981,5.565c-3.297,0.234-2.977-2.751-3.876-4.971c-4.633-11.462-0.184-23.431-2.26-35.009
	c-0.356-1.992,0.499-4.017,2.974-4.393c2.459-0.375,3.726,1.248,4.168,3.291C461.078,142.285,461.435,145.559,462.07,149.68z"/>
<path fill-rule="evenodd" clip-rule="evenodd" fill="#3ACC8A" d="M665.137,419.851c-9.479-3.772-20.52,1.471-30.376-3.71
	c-2.481-1.307-6.194-1.715-5.13-5.487c1.107-3.927,4.474-2.601,7.149-1.624c6.2,2.266,12.607,1.012,18.903,1.112
	c4.121,0.064,7.73,1.345,11.361,2.837c1.908,0.783,3.5,2.122,2.82,4.534C669.281,419.587,667.469,419.827,665.137,419.851z"/>
<path fill-rule="evenodd" clip-rule="evenodd" fill="#3ACC8A" d="M330.626,124.718c0.231-6.246-0.994-12.138-4.074-17.635
	c-1.304-2.328-2.742-5.047,0.656-6.704c3.272-1.597,4.509,1.139,5.931,3.438c3.682,5.953,4.917,12.508,5.161,19.361
	c0.139,3.871-0.666,7.813,1.458,11.515c0.924,1.611,0.479,3.487-1.324,4.56c-2.134,1.271-3.771,0.253-5.095-1.421
	C330.255,133.927,330.24,129.357,330.626,124.718z"/>
<path fill-rule="evenodd" clip-rule="evenodd" fill="#3ACC8A" d="M493.855,179.356c-0.598-3.268,1.342-5.686,3.314-8.076
	c4.515-5.471,8.188-11.295,8.99-18.616c0.289-2.625,1.279-5.582,4.868-4.826c3.526,0.743,3.227,3.847,2.689,6.412
	c-1.357,6.454-3.631,12.588-7.713,17.873c-2.142,2.766-4.527,5.3-5.334,8.911c-0.463,2.062-1.859,3.617-4.264,3.093
	C493.979,183.6,493.609,181.652,493.855,179.356z"/>
<path fill-rule="evenodd" clip-rule="evenodd" fill="#3ACC8A" d="M404.526,120.261c-1.516,3.667-3.845,7.537-7.495,9.904
	c-5.125,3.325-8.927,7.488-11.67,12.876c-0.858,1.687-2.432,3.081-3.887,4.371c-1.433,1.268-3.173,1.446-4.785,0.145
	c-1.707-1.378-1.662-3.135-0.425-4.636c4.915-5.968,7.229-14.113,15.082-17.653c3.329-1.501,4.432-5.317,6.938-7.743
	c1.418-1.372,2.988-1.815,4.773-1.086C404.511,117.032,404.64,118.379,404.526,120.261z"/>
<path fill-rule="evenodd" clip-rule="evenodd" fill="#3ACC8A" d="M198.415,272.964c0.773,5.218-1.778,10.125-0.158,15.184
	c0.575,1.797-0.275,3.472-2.235,4.182c-2.058,0.747-3.418-0.487-4.371-1.992c-1.413-2.233-2.116-4.604-1.667-7.431
	c1.131-7.136,1.841-14.28-1.448-21.191c-0.961-2.017-1.204-4.5,1.493-5.577c2.915-1.165,4.474,0.796,5.542,3.15
	C197.573,263.7,199.137,268.221,198.415,272.964z"/>
<path fill-rule="evenodd" clip-rule="evenodd" fill="#3ACC8A" d="M566.15,347.924c-0.854,3.558-2.565,4.792-5.389,3.277
	c-3.128-1.682-4.514-4.597-4.832-8.055c-0.631-6.853-2.307-13.273-7.02-18.629c-1.572-1.783-3.284-4.082-0.596-6.228
	c2.446-1.949,4.396-0.443,6.17,1.499c2.694,2.953,4.297,6.486,6.012,10.042C563.365,335.788,561.801,342.982,566.15,347.924z"/>
<path fill-rule="evenodd" clip-rule="evenodd" fill="#3ACC8A" d="M218.143,222.278c3.409,0.968,7.188,2.146,9.529,5
	c3.615,4.407,7.955,7.251,13.298,8.905c1.202,0.371,2.284,1.273,3.295,2.088c1.729,1.395,2.396,3.267,1.118,5.194
	c-1.127,1.701-2.858,1.352-4.705,0.906c-10.191-2.461-16.403-11.044-24.925-16.057c-1.48-0.87-1.704-2.542-1.025-4.089
	C215.301,222.923,216.555,222.44,218.143,222.278z"/>
<path fill-rule="evenodd" clip-rule="evenodd" fill="#3ACC8A" d="M313.007,168.561c-0.604,3.324-2.471,4.738-5.157,3.271
	c-5.599-3.059-12.677-3.783-16.191-10.258c-1.414-2.609-4.448-3.385-6.805-4.91c-1.833-1.188-2.932-2.809-1.902-4.95
	c1.05-2.181,3.029-2.209,5.047-1.44c1.012,0.387,2.061,0.787,2.938,1.401c6.65,4.663,12.015,11.136,19.982,13.985
	C311.89,166.008,312.392,167.663,313.007,168.561z"/>
<path fill-rule="evenodd" clip-rule="evenodd" fill="#3ACC8A" d="M428.422,195.976c-0.163,3.233-1.815,4.222-4.427,3.851
	c-3.509-0.498-5.926-2.614-7.845-5.458c-3.5-5.186-7.72-9.482-13.848-11.605c-2.315-0.802-4.883-2.236-3.819-5.184
	c1.237-3.426,4.264-2.236,6.767-1.513c5.706,1.647,9.918,5.519,13.776,9.755c2.472,2.719,4.064,6.231,7.73,7.849
	C427.582,194.034,427.987,195.341,428.422,195.976z"/>
<path fill-rule="evenodd" clip-rule="evenodd" fill="#3ACC8A" d="M168.492,363.856c-1.138,3.09-3.408,5.1-6.631,5.453
	c-7.83,0.854-15.596,1.621-22.11,6.815c-1.625,1.296-3.814,1.521-5.193-0.543c-1.537-2.302-0.235-4.099,1.548-5.643
	c4.777-4.137,10.532-6.115,16.611-7.008c3.62-0.531,7.246-0.196,10.704-2.178C165.963,359.294,167.99,360.674,168.492,363.856z"/>
<path fill-rule="evenodd" clip-rule="evenodd" fill="#3ACC8A" d="M272.216,205.78c-0.05,3.898-1.473,7.739-0.202,11.732
	c0.57,1.791-0.158,3.508-2.265,4.103c-1.987,0.562-3.464-0.358-4.495-1.922c-1.486-2.258-2.062-4.629-1.49-7.472
	c1.128-5.623,1.573-11.241-1.383-16.652c-1.124-2.058-2.068-4.95,0.721-6.411c3.136-1.643,4.76,0.833,6.028,3.324
	C271.254,196.657,272.481,201.041,272.216,205.78z"/>
<path fill-rule="evenodd" clip-rule="evenodd" fill="#3ACC8A" d="M158.375,330.837c-9.868,1.836-17.081-5.719-26.054-7.095
	c-1.89-0.289-2.912-1.921-2.599-3.943c0.326-2.098,1.965-2.783,3.805-2.901c1.06-0.068,2.166,0.154,3.215,0.396
	c7.899,1.813,14.729,7.093,23.304,6.937c2.067-0.037,4.31,1.678,3.613,4.456C162.965,331.459,160.501,331.203,158.375,330.837z"/>
<path fill-rule="evenodd" clip-rule="evenodd" fill="#3ACC8A" d="M651.042,371.475c-5.483-2.419-11.153-0.522-16.92,0.484
	c-2.407,0.42-5.81,1.105-6.513-2.468c-0.742-3.762,2.88-3.24,5.055-4.421c8.323-4.527,17.22,0.042,25.659-2.038
	c1.691-0.416,3.476,0.687,3.925,2.719c0.551,2.491-1.155,3.726-3.103,4.269C656.643,370.719,654.014,370.966,651.042,371.475z"/>
<path fill-rule="evenodd" clip-rule="evenodd" fill="#3ACC8A" d="M612.494,328.11c-0.088,4.565-2.426,8.513-4.814,12.412
	c-1.353,2.209-3.209,4.056-3.606,6.858c-0.298,2.102-1.792,3.679-4.135,3.303c-2.255-0.362-3.19-2.152-3.17-4.341
	c0.011-1.294-0.228-2.96,0.452-3.819c4.564-5.75,8.075-11.781,8.147-19.48c0.019-2.004,2.141-3.411,4.458-2.53
	C613.456,321.89,612.163,325.198,612.494,328.11z"/>
<path fill-rule="evenodd" clip-rule="evenodd" fill="#3ACC8A" d="M552.972,213.337c-1.58,3.96-5.133,6.142-8.563,6.524
	c-4.884,0.546-8.623,2.393-12.31,5.337c-2.198,1.753-5.42,3.332-7.615,0.314c-2.657-3.655,1.635-4.432,3.317-6.411
	c5.285-6.224,13.688-5.189,20.062-8.905C550.265,208.799,552.482,210.231,552.972,213.337z"/>
<path fill-rule="evenodd" clip-rule="evenodd" fill="#3ACC8A" d="M609.236,445.877c2.818-0.176,10.495,7.936,10.9,11.627
	c0.37,3.33,1.058,6.338,2.953,9.153c1.163,1.722,1.42,3.881-0.714,5.171c-1.954,1.179-3.86,0.471-5.187-1.282
	c-1.179-1.557-2.668-3.154-3.09-4.951c-1.109-4.734-2.811-8.913-6.109-12.686C606.01,450.637,605.312,447.231,609.236,445.877z"/>
<path fill-rule="evenodd" clip-rule="evenodd" fill="#3ACC8A" d="M350.636,176.837c3.732-2.266,7.534,1.491,9.594,5.437
	c2.155,4.126,1.745,8.055-0.776,11.734c-2.146,3.128-4.849,6.108-9.088,5.081c-4.339-1.052-8.702-4.224-7.689-8.73
	C343.536,186.531,347.284,178.874,350.636,176.837z"/>
<path fill-rule="evenodd" clip-rule="evenodd" fill="#3ACC8A" d="M194.291,339.501c-0.438-4.474-2.194-8.624,4.688-8.48
	c3.006,0.061,5.223,1.064,5.313,4.355c0.088,3.188-1.973,4.604-4.933,4.919c-1.93,0.206-2.385,0.147-4.321,0.327
	C194.618,340.462,194.067,339.937,194.291,339.501z"/>
<path fill-rule="evenodd" clip-rule="evenodd" fill="#3ACC8A" d="M582.295,410.465c-6.859,0.993-11.402-4.377-11.408-10.185
	c-0.005-6.298,3.791-9.63,11.32-9.765c3.038-0.054,6.133-0.328,9.008,1.124c5.174,2.614,8.165,10.218,3.643,14.024
	C592.285,407.83,585.619,409.981,582.295,410.465z"/>
<path fill-rule="evenodd" clip-rule="evenodd" fill="#3ACC8A" d="M466.026,234.235c0.042-5.874,3.454-10.111,8.129-9.701
	c5.353,0.468,7.396,3.909,7.294,8.972c-0.111,5.682-4.697,12.631-8.193,11.683C468.012,243.767,465.799,239.637,466.026,234.235z"/>
<path fill-rule="evenodd" clip-rule="evenodd" fill="#3ACC8A" d="M269.253,262.013c-0.427-4.58,1.292-7.259,6.159-7.065
	c4.477,0.178,6.963,2.902,7.02,7.033c0.062,4.383-2.714,7.775-7.054,7.973C270.435,270.179,268.848,266.486,269.253,262.013z"/>
</svg>
