<?xml version="1.0" encoding="UTF-8" standalone="no"?>
<svg
   xmlns:dc="http://purl.org/dc/elements/1.1/"
   xmlns:cc="http://creativecommons.org/ns#"
   xmlns:rdf="http://www.w3.org/1999/02/22-rdf-syntax-ns#"
   xmlns:svg="http://www.w3.org/2000/svg"
   xmlns="http://www.w3.org/2000/svg"
   xmlns:sodipodi="http://sodipodi.sourceforge.net/DTD/sodipodi-0.dtd"
   xmlns:inkscape="http://www.inkscape.org/namespaces/inkscape"
   version="1.1"
   id="svg2"
   xml:space="preserve"
   width="548.05334"
   height="265.73334"
   viewBox="0 0 548.05334 265.73334"
   sodipodi:docname="NCSA_FullColor_Vert_RGB (1).eps"><metadata
     id="metadata8"><rdf:RDF><cc:Work
         rdf:about=""><dc:format>image/svg+xml</dc:format><dc:type
           rdf:resource="http://purl.org/dc/dcmitype/StillImage" /></cc:Work></rdf:RDF></metadata><defs
     id="defs6" /><sodipodi:namedview
     pagecolor="#ffffff"
     bordercolor="#666666"
     borderopacity="1"
     objecttolerance="10"
     gridtolerance="10"
     guidetolerance="10"
     inkscape:pageopacity="0"
     inkscape:pageshadow="2"
     inkscape:window-width="640"
     inkscape:window-height="480"
     id="namedview4" /><g
     id="g10"
     inkscape:groupmode="layer"
     inkscape:label="ink_ext_XXXXXX"
     transform="matrix(1.3333333,0,0,-1.3333333,0,265.73333)"><g
       id="g12"
       transform="scale(0.1)"><path
         d="m 1326.44,994.387 v 231.683 h 50.96 V 994.387 h -50.96"
         style="fill:#192947;fill-opacity:1;fill-rule:nonzero;stroke:none"
         id="path14" /><path
         d="m 1437.95,994.387 v 231.683 h 50.97 v -185.34 h 115.51 v -46.343 h -166.48"
         style="fill:#192947;fill-opacity:1;fill-rule:nonzero;stroke:none"
         id="path16" /><path
         d="m 1641.76,994.387 v 231.683 h 50.97 v -185.34 h 115.5 v -46.343 h -166.47"
         style="fill:#192947;fill-opacity:1;fill-rule:nonzero;stroke:none"
         id="path18" /><path
         d="m 1846.69,994.387 v 231.683 h 50.97 V 994.387 h -50.97"
         style="fill:#192947;fill-opacity:1;fill-rule:nonzero;stroke:none"
         id="path20" /><path
         d="M 2120.7,994.387 2008.51,1141.66 V 994.387 h -50.31 v 231.683 h 47.01 l 108.55,-142.65 v 142.65 h 50.3 V 994.387 h -43.36"
         style="fill:#192947;fill-opacity:1;fill-rule:nonzero;stroke:none"
         id="path22" /><path
         d="m 2405.23,1110.23 c 0,39.72 -29.12,72.81 -70.16,72.81 -41.04,0 -69.51,-32.43 -69.51,-72.15 v -0.66 c 0,-39.72 29.13,-72.82 70.16,-72.82 41.05,0 69.51,32.44 69.51,72.15 z m -70.16,-119.82 c -71.49,0 -122.79,53.29 -122.79,119.15 v 0.67 c 0,65.86 51.96,119.8 123.44,119.8 71.5,0 122.79,-53.28 122.79,-119.14 v -0.66 c 0,-65.87 -51.96,-119.82 -123.44,-119.82"
         style="fill:#192947;fill-opacity:1;fill-rule:nonzero;stroke:none"
         id="path24" /><path
         d="m 2507.84,994.387 v 231.683 h 50.98 V 994.387 h -50.98"
         style="fill:#192947;fill-opacity:1;fill-rule:nonzero;stroke:none"
         id="path26" /><path
         d="m 2700.85,991.078 c -35.09,0 -70.5,12.242 -98.3,37.072 l 30.12,36.07 c 20.85,-17.2 42.69,-28.13 69.17,-28.13 20.85,0 33.43,8.27 33.43,21.84 v 0.67 c 0,12.91 -7.94,19.52 -46.66,29.45 -46.67,11.91 -76.79,24.83 -76.79,70.83 v 0.67 c 0,42.02 33.76,69.82 81.08,69.82 33.76,0 62.56,-10.59 86.06,-29.46 l -26.49,-38.38 c -20.52,14.23 -40.7,22.83 -60.23,22.83 -19.52,0 -29.79,-8.93 -29.79,-20.18 v -0.67 c 0,-15.22 9.93,-20.19 49.98,-30.45 47,-12.25 73.48,-29.12 73.48,-69.5 v -0.67 c 0,-45.99 -35.09,-71.812 -85.06,-71.812"
         style="fill:#192947;fill-opacity:1;fill-rule:nonzero;stroke:none"
         id="path28" /><path
         d="m 2117.17,1431.9 h 36.59 v -60.99 h -195.18 v 60.99 h 36.6 c 6.73,0 12.19,5.47 12.19,12.21 v 146.37 c 0,6.74 -5.46,12.2 -12.19,12.2 h -36.6 v 60.98 h 195.18 v -60.98 h -36.59 c -6.74,0 -12.21,-5.46 -12.21,-12.2 v -146.37 c 0,-6.74 5.47,-12.21 12.21,-12.21 m 48.79,158.58 v 85.39 h -219.57 v -85.39 h 48.79 v -146.37 h -48.79 v -85.41 h 219.57 v 85.41 h -48.79 v 146.37 h 48.79"
         style="fill:#192947;fill-opacity:1;fill-rule:nonzero;stroke:none"
         id="path30" /><path
         d="m 2117.17,1602.68 h 36.59 v 60.98 h -195.18 v -60.98 h 36.6 c 6.73,0 12.19,-5.46 12.19,-12.2 V 1444.1 c 0,-6.73 -5.46,-12.2 -12.19,-12.2 h -36.6 v -60.99 h 195.18 v 60.99 h -36.59 c -6.74,0 -12.21,5.47 -12.21,12.2 v 146.38 c 0,6.74 5.47,12.2 12.21,12.2"
         style="fill:#e83a22;fill-opacity:1;fill-rule:nonzero;stroke:none"
         id="path32" /><path
         d="m 494.773,855.719 h 19.875 L 617.133,701.711 v 154.008 h 20.719 v -196 h -17.641 l -105,158.203 V 659.719 h -20.438 v 196"
         style="fill:#192947;fill-opacity:1;fill-rule:nonzero;stroke:none"
         id="path34" /><path
         d="m 676.91,756.602 v 1.949 c 0,59.078 36.957,99.961 85.957,99.961 27.16,0 44.801,-10.352 59.922,-24.364 l -13.156,-16.226 c -12.883,12.308 -27.445,21 -47.606,21 -35.839,0 -63.281,-33.051 -63.281,-80.371 v -1.11 c 0,-48.171 27.723,-80.921 63.559,-80.921 19.601,0 34.164,8.121 48.445,22.402 l 12.879,-15.121 c -16.238,-15.973 -35,-26.891 -62.16,-26.891 -48.719,0 -84.559,39.762 -84.559,99.692"
         style="fill:#192947;fill-opacity:1;fill-rule:nonzero;stroke:none"
         id="path36" /><path
         d="m 848.074,684.641 13.156,15.961 c 16.52,-15.122 33.04,-24.364 55.165,-24.364 23.515,0 39.476,14.282 39.476,32.762 v 0.559 c 0,16.23 -8.121,26.589 -43.683,39.203 -40.594,15.117 -56.278,29.668 -56.278,57.386 v 0.563 c 0,29.398 24.36,51.801 58.805,51.801 22.394,0 41.433,-6.992 58.797,-22.114 L 960.91,819.879 c -14.562,12.871 -29.961,19.312 -47.043,19.312 -22.394,0 -36.957,-13.711 -36.957,-30.519 v -0.551 c 0,-17.09 8.684,-26.883 45.641,-40.332 40.039,-14.828 54.043,-30.801 54.043,-56.84 v -0.551 c 0,-31.359 -25.485,-53.488 -60.485,-53.488 -25.199,0 -47.32,8.692 -68.035,27.731"
         style="fill:#192947;fill-opacity:1;fill-rule:nonzero;stroke:none"
         id="path38" /><path
         d="m 1117.57,730.27 -36.96,99.41 -37.24,-99.41 z m -47.04,126.851 h 20.72 l 74.76,-197.402 h -22.4 l -19.04,51.519 h -88.2 l -19.04,-51.519 h -21.56 l 74.76,197.402"
         style="fill:#192947;fill-opacity:1;fill-rule:nonzero;stroke:none"
         id="path40" /><path
         d="m 1271.57,880.641 h 16.8 V 626.398 h -16.8 v 254.243"
         style="fill:#192947;fill-opacity:1;fill-rule:nonzero;stroke:none"
         id="path42" /><path
         d="m 1408.2,855.719 h 19.88 l 102.48,-154.008 v 154.008 h 20.73 v -196 h -17.65 l -105,158.203 V 659.719 h -20.44 v 196"
         style="fill:#192947;fill-opacity:1;fill-rule:nonzero;stroke:none"
         id="path44" /><path
         d="m 1676.35,710.109 v 18.77 c -9.23,3.07 -21,5.59 -35.27,5.59 -23.25,0 -36.13,-12.028 -36.13,-30.508 v -1.133 c 0,-18.187 13.45,-29.398 31.09,-29.398 22.39,-0.27 40.31,15.691 40.31,36.679 z m -91.84,-8.121 v 1.133 c 0,29.957 21.84,47.027 54.05,47.027 15.4,0 26.59,-2.519 37.52,-6.148 v 8.961 c 0,23.519 -13.72,36.117 -36.97,36.117 -14.84,0 -27.43,-4.476 -37.52,-9.808 l -6.44,16.8 c 13.72,6.442 28.01,11.211 45.93,11.211 17.63,0 31.35,-4.769 40.87,-14.281 9.24,-8.691 14,-22.398 14,-39.488 v -93.793 h -19.87 v 21.269 c -8.69,-13.437 -22.96,-24.359 -44.24,-24.359 -24.65,0 -47.33,16.531 -47.33,45.359"
         style="fill:#192947;fill-opacity:1;fill-rule:nonzero;stroke:none"
         id="path46" /><path
         d="m 1736.21,693.59 v 94.082 h -17.63 v 17.93 h 17.63 v 42.558 h 20.17 v -42.558 h 38.07 v -17.93 h -38.07 v -90.723 c 0,-15.39 8.4,-20.711 20.99,-20.711 5.6,0 11.21,1.121 17.08,3.641 v -17.367 c -6.44,-3.082 -13.43,-5.043 -21.83,-5.043 -20.72,0 -36.41,10.082 -36.41,36.121"
         style="fill:#192947;fill-opacity:1;fill-rule:nonzero;stroke:none"
         id="path48" /><path
         d="m 1822.82,805.602 h 20.16 V 659.719 h -20.16 z m -1.12,53.75 h 22.68 v -23.793 h -22.68 v 23.793"
         style="fill:#192947;fill-opacity:1;fill-rule:nonzero;stroke:none"
         id="path50" /><path
         d="m 1983.85,731.672 v 1.406 c 0,32.75 -19.6,57.113 -44.52,57.113 -25.48,0 -43.96,-24.632 -43.96,-56.839 v -1.403 c 0,-32.48 19.32,-57.109 44.24,-57.109 25.76,0 44.24,24.629 44.24,56.832 z m -109.2,0 v 1.68 c 0,42.289 27.71,75.039 64.96,75.039 37.52,0 64.68,-32.2 64.68,-74.762 v -1.68 c 0,-42.558 -27.44,-75.32 -64.96,-75.32 -37.24,0 -64.68,32.211 -64.68,75.043"
         style="fill:#192947;fill-opacity:1;fill-rule:nonzero;stroke:none"
         id="path52" /><path
         d="m 2035.69,805.602 h 20.15 v -23.813 c 8.13,14.57 21.28,26.602 43.13,26.602 29.67,0 47.59,-20.43 47.59,-52.911 v -95.761 h -20.16 v 89.883 c 0,26.039 -12.32,40.589 -33.6,40.589 -21.27,0 -36.96,-16.8 -36.96,-41.722 v -88.75 h -20.15 v 145.883"
         style="fill:#192947;fill-opacity:1;fill-rule:nonzero;stroke:none"
         id="path54" /><path
         d="m 2265.81,710.109 v 18.77 c -9.25,3.07 -21,5.59 -35.28,5.59 -23.24,0 -36.12,-12.028 -36.12,-30.508 v -1.133 c 0,-18.187 13.43,-29.398 31.08,-29.398 22.4,-0.27 40.32,15.691 40.32,36.679 z m -91.84,-8.121 v 1.133 c 0,29.957 21.84,47.027 54.04,47.027 15.4,0 26.6,-2.519 37.52,-6.148 v 8.961 c 0,23.519 -13.72,36.117 -36.96,36.117 -14.84,0 -27.45,-4.476 -37.52,-9.808 l -6.44,16.8 c 13.72,6.442 28,11.211 45.92,11.211 17.64,0 31.36,-4.769 40.88,-14.281 9.24,-8.691 14,-22.398 14,-39.488 v -93.793 h -19.88 v 21.269 c -8.68,-13.437 -22.96,-24.359 -44.24,-24.359 -24.64,0 -47.32,16.531 -47.32,45.359"
         style="fill:#192947;fill-opacity:1;fill-rule:nonzero;stroke:none"
         id="path56" /><path
         d="m 2323.83,861.871 h 20.16 V 659.719 h -20.16 v 202.152"
         style="fill:#192947;fill-opacity:1;fill-rule:nonzero;stroke:none"
         id="path58" /><path
         d="m 2447.86,756.602 v 1.949 c 0,59.078 36.97,99.961 85.97,99.961 27.16,0 44.79,-10.352 59.91,-24.364 l -13.15,-16.226 c -12.88,12.308 -27.44,21 -47.6,21 -35.84,0 -63.28,-33.051 -63.28,-80.371 v -1.11 c 0,-48.171 27.71,-80.921 63.55,-80.921 19.6,0 34.16,8.121 48.44,22.402 l 12.88,-15.121 c -16.24,-15.973 -35,-26.891 -62.16,-26.891 -48.72,0 -84.56,39.762 -84.56,99.692"
         style="fill:#192947;fill-opacity:1;fill-rule:nonzero;stroke:none"
         id="path60" /><path
         d="m 2711.79,740.352 c -1.12,27.726 -14.56,50.41 -38.09,50.41 -21.55,0 -37.79,-19.891 -39.75,-50.41 z m -98.28,-8.954 v 1.68 c 0,44.512 26.03,75.313 60.48,75.313 36.39,0 58.24,-31.352 58.24,-75.313 v -8.398 h -98.28 c 2.23,-32.211 22.12,-50.121 45.07,-50.121 15.96,0 27.73,6.722 37.81,16.8 l 11.47,-12.89 c -13.15,-13.438 -28.27,-21.84 -50.11,-21.84 -35.56,0 -64.68,28.562 -64.68,74.769"
         style="fill:#192947;fill-opacity:1;fill-rule:nonzero;stroke:none"
         id="path62" /><path
         d="m 2763.22,805.602 h 20.16 v -23.813 c 8.13,14.57 21.28,26.602 43.13,26.602 29.67,0 47.59,-20.43 47.59,-52.911 v -95.761 h -20.16 v 89.883 c 0,26.039 -12.32,40.589 -33.6,40.589 -21.28,0 -36.96,-16.8 -36.96,-41.722 v -88.75 h -20.16 v 145.883"
         style="fill:#192947;fill-opacity:1;fill-rule:nonzero;stroke:none"
         id="path64" /><path
         d="m 2915.23,693.59 v 94.082 h -17.64 v 17.93 h 17.64 v 42.558 h 20.16 v -42.558 h 38.08 v -17.93 h -38.08 v -90.723 c 0,-15.39 8.4,-20.711 21,-20.711 5.59,0 11.2,1.121 17.08,3.641 v -17.367 c -6.45,-3.082 -13.44,-5.043 -21.84,-5.043 -20.72,0 -36.4,10.082 -36.4,36.121"
         style="fill:#192947;fill-opacity:1;fill-rule:nonzero;stroke:none"
         id="path66" /><path
         d="m 3088.88,740.352 c -1.12,27.726 -14.56,50.41 -38.09,50.41 -21.55,0 -37.79,-19.891 -39.75,-50.41 z m -98.28,-8.954 v 1.68 c 0,44.512 26.03,75.313 60.48,75.313 36.39,0 58.24,-31.352 58.24,-75.313 v -8.398 h -98.28 c 2.23,-32.211 22.12,-50.121 45.07,-50.121 15.96,0 27.73,6.722 37.81,16.8 l 11.47,-12.89 c -13.15,-13.438 -28.27,-21.84 -50.12,-21.84 -35.55,0 -64.67,28.562 -64.67,74.769"
         style="fill:#192947;fill-opacity:1;fill-rule:nonzero;stroke:none"
         id="path68" /><path
         d="m 3140.31,805.602 h 20.16 v -32.211 c 8.68,20.449 26.32,35.281 50.12,34.16 v -21.832 h -1.4 c -26.87,0 -48.72,-19.047 -48.72,-56.571 v -69.429 h -20.16 v 145.883"
         style="fill:#192947;fill-opacity:1;fill-rule:nonzero;stroke:none"
         id="path70" /><path
         d="m 3311.11,787.672 h -17.92 v 17.637 h 17.92 v 13.453 c 0,15.117 3.92,26.59 11.2,33.867 7,7.012 16.24,10.371 28.28,10.371 7.84,0 13.72,-1.129 19.32,-2.809 v -17.91 c -5.88,1.68 -10.92,2.52 -16.52,2.52 -14.84,0 -22.12,-8.692 -22.12,-27.442 v -12.05 h 38.08 v -17.637 h -38.08 V 659.719 h -20.16 v 127.953"
         style="fill:#192947;fill-opacity:1;fill-rule:nonzero;stroke:none"
         id="path72" /><path
         d="m 3489.33,731.672 v 1.406 c 0,32.75 -19.6,57.113 -44.52,57.113 -25.48,0 -43.96,-24.632 -43.96,-56.839 v -1.403 c 0,-32.48 19.32,-57.109 44.24,-57.109 25.76,0 44.24,24.629 44.24,56.832 z m -109.2,0 v 1.68 c 0,42.289 27.71,75.039 64.96,75.039 37.52,0 64.68,-32.2 64.68,-74.762 v -1.68 c 0,-42.558 -27.44,-75.32 -64.96,-75.32 -37.24,0 -64.68,32.211 -64.68,75.043"
         style="fill:#192947;fill-opacity:1;fill-rule:nonzero;stroke:none"
         id="path74" /><path
         d="m 3541.15,805.602 h 20.16 v -32.211 c 8.68,20.449 26.32,35.281 50.12,34.16 v -21.832 h -1.4 c -26.87,0 -48.72,-19.047 -48.72,-56.571 v -69.429 h -20.16 v 145.883"
         style="fill:#192947;fill-opacity:1;fill-rule:nonzero;stroke:none"
         id="path76" /><path
         d="m 317.16,384.641 13.16,15.961 c 16.52,-15.122 33.035,-24.364 55.16,-24.364 23.516,0 39.477,14.282 39.477,32.762 v 0.559 c 0,16.23 -8.117,26.589 -43.68,39.203 -40.597,15.117 -56.281,29.668 -56.281,57.386 v 0.563 c 0,29.398 24.359,51.801 58.805,51.801 22.398,0 41.433,-6.992 58.797,-22.114 l -12.602,-16.519 c -14.558,12.871 -29.961,19.312 -47.035,19.312 -22.402,0 -36.965,-13.711 -36.965,-30.523 v -0.547 c 0,-17.09 8.684,-26.883 45.641,-40.332 40.039,-14.828 54.039,-30.801 54.039,-56.84 v -0.551 c 0,-31.359 -25.481,-53.488 -60.481,-53.488 -25.199,0 -47.316,8.692 -68.035,27.731"
         style="fill:#192947;fill-opacity:1;fill-rule:nonzero;stroke:none"
         id="path78" /><path
         d="m 475.668,409.84 v 95.762 h 20.16 v -89.883 c 0,-26.039 12.317,-40.61 33.598,-40.61 21,0 36.679,16.52 36.679,41.719 v 88.774 h 20.442 V 359.719 h -20.442 v 23.519 c -7.839,-14.277 -21,-26.609 -42.839,-26.609 -29.68,0 -47.598,20.73 -47.598,53.211"
         style="fill:#192947;fill-opacity:1;fill-rule:nonzero;stroke:none"
         id="path80" /><path
         d="m 730.402,431.398 v 2.231 c 0,35.293 -19.039,56.562 -41.441,56.562 -22.957,0 -44.238,-22.113 -44.238,-56.269 v -2.524 c 0,-34.449 21.281,-56.289 44.238,-56.289 22.965,0 41.441,20.161 41.441,56.289 z m -105,74.204 h 20.161 V 477.32 c 9.8,16.801 24.363,31.071 47.601,31.071 29.402,0 57.961,-25.762 57.961,-74.2 v -2.793 c 0,-48.437 -28.559,-74.769 -57.961,-74.769 -23.519,0 -38.359,14.281 -47.601,30.242 v -69.16 h -20.161 v 187.891"
         style="fill:#192947;fill-opacity:1;fill-rule:nonzero;stroke:none"
         id="path82" /><path
         d="m 874.602,440.352 c -1.118,27.726 -14.555,50.41 -38.079,50.41 -21.558,0 -37.8,-19.891 -39.757,-50.41 z m -98.278,-8.954 v 1.68 c 0,44.512 26.039,75.313 60.481,75.313 36.398,0 58.242,-31.352 58.242,-75.313 v -8.398 h -98.281 c 2.242,-32.211 22.117,-50.121 45.078,-50.121 15.961,0 27.719,6.722 37.801,16.8 l 11.48,-12.89 c -13.16,-13.438 -28.281,-21.84 -50.121,-21.84 -35.559,0 -64.68,28.562 -64.68,74.769"
         style="fill:#192947;fill-opacity:1;fill-rule:nonzero;stroke:none"
         id="path84" /><path
         d="m 926.035,505.602 h 20.164 v -32.211 c 8.68,20.449 26.321,35.277 50.121,34.16 v -21.832 h -1.402 c -26.879,0 -48.719,-19.047 -48.719,-56.571 v -69.429 h -20.164 v 145.883"
         style="fill:#192947;fill-opacity:1;fill-rule:nonzero;stroke:none"
         id="path86" /><path
         d="m 1010.27,431.109 v 2.243 c 0,43.968 28.55,75.039 64.96,75.039 20.71,0 34.43,-8.672 45.91,-19.879 l -11.75,-15.121 c -8.97,8.687 -19.32,16.527 -34.45,16.527 -24.36,0 -43.96,-22.969 -43.96,-56.84 v -1.406 c 0,-34.723 20.16,-56.563 44.8,-56.563 14.29,0.289 25.2,7.289 34.16,16.801 l 11.77,-13.441 c -10.93,-12.321 -25.49,-21.84 -47.05,-21.84 -36.67,0 -64.39,30.531 -64.39,74.48"
         style="fill:#192947;fill-opacity:1;fill-rule:nonzero;stroke:none"
         id="path88" /><path
         d="m 1246.1,431.672 v 1.406 c 0,32.75 -19.6,57.113 -44.52,57.113 -25.48,0 -43.96,-24.632 -43.96,-56.839 v -1.403 c 0,-32.48 19.32,-57.109 44.24,-57.109 25.76,0 44.24,24.629 44.24,56.832 z m -109.2,0 v 1.68 c 0,42.289 27.72,75.039 64.96,75.039 37.52,0 64.68,-32.2 64.68,-74.762 v -1.68 c 0,-42.558 -27.44,-75.32 -64.96,-75.32 -37.24,0 -64.68,32.211 -64.68,75.043"
         style="fill:#192947;fill-opacity:1;fill-rule:nonzero;stroke:none"
         id="path90" /><path
         d="m 1297.93,505.602 h 20.16 v -23.243 c 8.12,14 19.88,26.032 40.88,26.032 19.32,0 33.32,-10.641 40.32,-26.602 8.96,14.281 22.4,26.602 44.8,26.602 28.28,0 46.48,-19.59 46.48,-53.473 v -95.199 h -20.16 v 89.883 c 0,26.589 -11.76,40.589 -31.64,40.589 -19.04,0 -34.44,-15.121 -34.44,-41.429 v -89.043 h -20.16 v 90.16 c 0,26.312 -11.76,40.312 -31.64,40.312 -19.32,0 -34.44,-17.07 -34.44,-41.722 v -88.75 h -20.16 v 145.883"
         style="fill:#192947;fill-opacity:1;fill-rule:nonzero;stroke:none"
         id="path92" /><path
         d="m 1633.56,431.398 v 2.231 c 0,35.293 -19.04,56.562 -41.44,56.562 -22.96,0 -44.24,-22.113 -44.24,-56.269 v -2.524 c 0,-34.449 21.28,-56.289 44.24,-56.289 22.96,0 41.44,20.161 41.44,56.289 z m -105,74.204 h 20.16 V 477.32 c 9.8,16.801 24.36,31.071 47.6,31.071 29.4,0 57.96,-25.762 57.96,-74.2 v -2.793 c 0,-48.437 -28.56,-74.769 -57.96,-74.769 -23.52,0 -38.35,14.281 -47.6,30.242 v -69.16 h -20.16 v 187.891"
         style="fill:#192947;fill-opacity:1;fill-rule:nonzero;stroke:none"
         id="path94" /><path
         d="m 1685,409.84 v 95.762 h 20.16 v -89.883 c 0,-26.039 12.32,-40.61 33.6,-40.61 21,0 36.68,16.52 36.68,41.719 v 88.774 h 20.44 V 359.719 h -20.44 v 23.519 c -7.84,-14.277 -21,-26.609 -42.85,-26.609 -29.67,0 -47.59,20.73 -47.59,53.211"
         style="fill:#192947;fill-opacity:1;fill-rule:nonzero;stroke:none"
         id="path96" /><path
         d="m 1840,393.59 v 94.082 h -17.64 v 17.93 H 1840 v 42.558 h 20.17 v -42.558 h 38.07 v -17.93 h -38.07 v -90.723 c 0,-15.39 8.4,-20.711 20.99,-20.711 5.6,0 11.2,1.121 17.08,3.641 v -17.367 c -6.44,-3.082 -13.43,-5.043 -21.83,-5.043 -20.72,0 -36.41,10.082 -36.41,36.121"
         style="fill:#192947;fill-opacity:1;fill-rule:nonzero;stroke:none"
         id="path98" /><path
         d="m 1926.61,505.602 h 20.16 V 359.719 h -20.16 z m -1.12,53.75 h 22.68 v -23.793 h -22.68 v 23.793"
         style="fill:#192947;fill-opacity:1;fill-rule:nonzero;stroke:none"
         id="path100" /><path
         d="m 1986.19,505.602 h 20.16 v -23.813 c 8.12,14.57 21.28,26.602 43.12,26.602 29.68,0 47.6,-20.43 47.6,-52.911 v -95.761 h -20.16 v 89.883 c 0,26.039 -12.32,40.589 -33.6,40.589 -21.28,0 -36.96,-16.8 -36.96,-41.722 v -88.75 h -20.16 v 145.883"
         style="fill:#192947;fill-opacity:1;fill-rule:nonzero;stroke:none"
         id="path102" /><path
         d="m 2233.21,438.668 v 0.844 c 0,31.359 -21.56,50.679 -44.52,50.679 -22.68,0 -41.16,-18.75 -41.16,-50.679 v -0.551 c 0,-31.641 18.76,-50.961 41.16,-50.961 22.96,0 44.52,19.59 44.52,50.668 z m -100.52,-105.84 8.12,16.524 c 13.72,-9.243 30.24,-14.551 47.04,-14.551 27.44,0 44.52,14.551 44.52,43.668 v 21.293 c -10.08,-16.25 -24.92,-29.961 -48.16,-29.961 -29.68,0 -57.4,24.629 -57.4,68.867 v 1.133 c 0,43.668 28,68.59 57.4,68.59 23.52,0 38.36,-13.442 48.16,-28.832 v 26.043 h 20.44 V 379.039 c 0,-19.891 -5.88,-34.73 -16.24,-45.348 -11.2,-10.941 -28,-16.531 -48.44,-16.531 -19.6,0 -38.08,5.309 -55.44,15.668"
         style="fill:#192947;fill-opacity:1;fill-rule:nonzero;stroke:none"
         id="path104" /><path
         d="m 2469.81,430.27 -36.96,99.41 -37.24,-99.41 z m -47.03,126.851 h 20.71 l 74.76,-197.402 h -22.4 l -19.04,51.519 h -88.2 l -19.04,-51.519 h -21.56 l 74.77,197.402"
         style="fill:#192947;fill-opacity:1;fill-rule:nonzero;stroke:none"
         id="path106" /><path
         d="m 2651.17,431.398 v 2.231 c 0,35.293 -19.04,56.562 -41.44,56.562 -22.96,0 -44.24,-22.113 -44.24,-56.269 v -2.524 c 0,-34.449 21.28,-56.289 44.24,-56.289 22.96,0 41.44,20.161 41.44,56.289 z m -105,74.204 h 20.16 V 477.32 c 9.8,16.801 24.36,31.071 47.6,31.071 29.4,0 57.96,-25.762 57.96,-74.2 v -2.793 c 0,-48.437 -28.56,-74.769 -57.96,-74.769 -23.52,0 -38.36,14.281 -47.6,30.242 v -69.16 h -20.16 v 187.891"
         style="fill:#192947;fill-opacity:1;fill-rule:nonzero;stroke:none"
         id="path108" /><path
         d="m 2809.43,431.398 v 2.231 c 0,35.293 -19.05,56.562 -41.45,56.562 -22.96,0 -44.24,-22.113 -44.24,-56.269 v -2.524 c 0,-34.449 21.28,-56.289 44.24,-56.289 22.96,0 41.45,20.161 41.45,56.289 z m -105,74.204 h 20.15 V 477.32 c 9.81,16.801 24.37,31.071 47.6,31.071 29.4,0 57.96,-25.762 57.96,-74.2 v -2.793 c 0,-48.437 -28.56,-74.769 -57.96,-74.769 -23.52,0 -38.36,14.281 -47.6,30.242 v -69.16 h -20.15 v 187.891"
         style="fill:#192947;fill-opacity:1;fill-rule:nonzero;stroke:none"
         id="path110" /><path
         d="m 2863.36,561.871 h 20.16 V 359.719 h -20.16 v 202.152"
         style="fill:#192947;fill-opacity:1;fill-rule:nonzero;stroke:none"
         id="path112" /><path
         d="M 2923.84,505.602 H 2944 V 359.719 h -20.16 z m -1.12,53.75 h 22.67 v -23.793 h -22.67 v 23.793"
         style="fill:#192947;fill-opacity:1;fill-rule:nonzero;stroke:none"
         id="path114" /><path
         d="m 2975.67,431.109 v 2.243 c 0,43.968 28.55,75.039 64.96,75.039 20.71,0 34.43,-8.672 45.91,-19.879 l -11.75,-15.121 c -8.97,8.687 -19.33,16.527 -34.45,16.527 -24.35,0 -43.95,-22.969 -43.95,-56.84 v -1.406 c 0,-34.723 20.15,-56.563 44.79,-56.563 14.28,0.289 25.21,7.289 34.16,16.801 l 11.76,-13.441 c -10.92,-12.321 -25.48,-21.84 -47.04,-21.84 -36.68,0 -64.39,30.531 -64.39,74.48"
         style="fill:#192947;fill-opacity:1;fill-rule:nonzero;stroke:none"
         id="path116" /><path
         d="m 3198.52,410.109 v 18.77 c -9.25,3.07 -21.01,5.59 -35.29,5.59 -23.24,0 -36.12,-12.028 -36.12,-30.508 v -1.133 c 0,-18.187 13.45,-29.398 31.08,-29.398 22.41,-0.27 40.33,15.691 40.33,36.679 z m -91.85,-8.121 v 1.133 c 0,29.957 21.85,47.027 54.04,47.027 15.4,0 26.61,-2.519 37.52,-6.148 v 8.961 c 0,23.519 -13.72,36.117 -36.96,36.117 -14.83,0 -27.44,-4.476 -37.52,-9.808 l -6.43,16.8 c 13.72,6.442 27.99,11.211 45.91,11.211 17.64,0 31.36,-4.769 40.88,-14.281 9.24,-8.691 14.01,-22.398 14.01,-39.488 v -93.793 h -19.89 v 21.269 c -8.68,-13.437 -22.96,-24.359 -44.23,-24.359 -24.64,0 -47.33,16.531 -47.33,45.359"
         style="fill:#192947;fill-opacity:1;fill-rule:nonzero;stroke:none"
         id="path118" /><path
         d="m 3258.38,393.59 v 94.082 h -17.64 v 17.93 h 17.64 v 42.558 h 20.17 v -42.558 h 38.07 v -17.93 h -38.07 v -90.723 c 0,-15.39 8.39,-20.711 20.99,-20.711 5.6,0 11.2,1.121 17.08,3.641 v -17.367 c -6.44,-3.082 -13.43,-5.043 -21.83,-5.043 -20.73,0 -36.41,10.082 -36.41,36.121"
         style="fill:#192947;fill-opacity:1;fill-rule:nonzero;stroke:none"
         id="path120" /><path
         d="m 3344.98,505.602 h 20.16 V 359.719 h -20.16 z m -1.12,53.75 h 22.67 v -23.793 h -22.67 v 23.793"
         style="fill:#192947;fill-opacity:1;fill-rule:nonzero;stroke:none"
         id="path122" /><path
         d="m 3506.02,431.672 v 1.406 c 0,32.75 -19.6,57.113 -44.52,57.113 -25.48,0 -43.96,-24.632 -43.96,-56.839 v -1.403 c 0,-32.48 19.32,-57.109 44.24,-57.109 25.76,0 44.24,24.629 44.24,56.832 z m -109.2,0 v 1.68 c 0,42.289 27.71,75.039 64.96,75.039 37.52,0 64.68,-32.2 64.68,-74.762 v -1.68 c 0,-42.558 -27.44,-75.32 -64.96,-75.32 -37.24,0 -64.68,32.211 -64.68,75.043"
         style="fill:#192947;fill-opacity:1;fill-rule:nonzero;stroke:none"
         id="path124" /><path
         d="M 3557.84,505.602 H 3578 v -23.813 c 8.12,14.57 21.28,26.602 43.12,26.602 29.68,0 47.6,-20.43 47.6,-52.911 v -95.761 h -20.16 v 89.883 c 0,26.039 -12.32,40.589 -33.6,40.589 -21.28,0 -36.96,-16.8 -36.96,-41.722 v -88.75 h -20.16 v 145.883"
         style="fill:#192947;fill-opacity:1;fill-rule:nonzero;stroke:none"
         id="path126" /><path
         d="m 3693.3,377.629 10.65,14.84 c 13.72,-11.481 27.99,-17.629 42.56,-17.629 15.95,0 27.44,9.238 27.44,22.672 v 0.566 c 0,12.602 -12.04,19.32 -32.21,27.711 -22.96,9.52 -41.44,19.051 -41.44,41.723 v 0.566 c 0,24.082 19.05,39.75 45.37,39.75 16.79,0 33.59,-6.43 45.91,-15.668 l -9.8,-15.41 c -11.19,8.129 -23.8,13.73 -36.68,13.73 -15.12,0 -25.2,-8.691 -25.2,-20.449 v -0.562 c 0,-12.309 12.6,-18.481 32.48,-26.879 24.09,-10.918 40.88,-20.719 40.88,-43.121 v -0.278 c 0,-26.312 -20.99,-41.992 -47.32,-41.992 -17.92,0 -37.24,6.992 -52.64,20.43"
         style="fill:#192947;fill-opacity:1;fill-rule:nonzero;stroke:none"
         id="path128" /></g></g></svg>
