<?xml version="1.0" standalone="no"?>
<!DOCTYPE svg PUBLIC "-//W3C//DTD SVG 20010904//EN"
 "http://www.w3.org/TR/2001/REC-SVG-20010904/DTD/svg10.dtd">
<svg version="1.0" xmlns="http://www.w3.org/2000/svg"
 width="280.000000pt" height="280.000000pt" viewBox="0 0 280.000000 280.000000"
 preserveAspectRatio="xMidYMid meet">
<metadata>
Created by potrace 1.11, written by Peter Selinger 2001-2013
</metadata>
<g transform="translate(0.000000,280.000000) scale(0.100000,-0.100000)"
fill="#000000" stroke="none">
<path d="M340 2055 l0 -465 120 0 121 0 -2 88 c0 48 0 133 0 190 l1 102 114 0
c132 0 124 -8 118 113 l-4 67 -113 0 -114 0 -3 43 c-2 23 -1 66 0 95 l4 52
163 0 163 0 -1 88 -2 87 -282 3 -283 2 0 -465z"/>
<path d="M1926 2512 c-3 -5 -8 -24 -11 -43 -6 -31 -34 -150 -116 -494 -33
-136 -89 -377 -89 -382 0 -2 44 -3 98 -3 l99 0 19 93 19 92 100 1 c55 0 105
-1 111 -3 6 -2 17 -40 24 -83 7 -44 16 -84 19 -89 4 -5 47 -10 96 -11 147 -2
147 -2 141 18 -3 9 -8 33 -11 52 -3 19 -15 76 -26 125 -11 50 -34 153 -50 230
-17 77 -32 149 -34 160 -8 37 -13 59 -30 140 -9 44 -20 96 -25 115 -4 19 -11
47 -14 63 l-6 27 -155 0 c-84 0 -156 -4 -159 -8z m159 -317 c9 -49 20 -115 25
-145 5 -30 12 -67 16 -82 l6 -28 -76 0 c-42 0 -76 3 -76 8 0 4 4 23 10 42 5
19 11 46 13 60 12 68 50 236 55 245 7 12 8 10 27 -100z"/>
<path d="M380 1212 l-36 -3 1 -462 0 -462 118 -3 c116 -3 117 -2 118 20 2 108
-1 901 -4 905 -6 5 -150 9 -197 5z"/>
<path d="M1780 745 l0 -465 119 0 119 0 2 197 c0 108 3 199 5 202 6 5 65 4 71
-2 3 -2 30 -93 61 -201 l56 -196 119 0 c110 0 120 1 113 18 -9 22 -78 222
-118 341 -24 72 -29 95 -19 99 7 2 32 18 54 36 124 95 115 293 -19 385 -62 42
-111 49 -344 51 l-219 1 0 -466z m363 286 c33 -2 67 -50 67 -95 -1 -68 -32
-93 -129 -102 l-60 -5 -3 53 c-2 29 -1 77 0 106 l4 52 51 -4 c29 -2 60 -4 70
-5z"/>
</g>
</svg>
